<svg width="75" height="75" viewBox="0 0 75 75" fill="none" xmlns="http://www.w3.org/2000/svg">
  <rect width="75" height="75" rx="12" fill="#235e87"/>
  <g transform="translate(12, 12)">
    <!-- Flashcard stack -->
    <rect x="8" y="12" width="35" height="28" rx="3" fill="#ffffff" opacity="0.3"/>
    <rect x="4" y="8" width="35" height="28" rx="3" fill="#ffffff" opacity="0.5"/>
    <rect x="0" y="4" width="35" height="28" rx="3" fill="#ffffff"/>
    <!-- Star on card -->
    <path d="M17.5 10L19.5 16H26L20.5 20L22.5 26L17.5 22L12.5 26L14.5 20L9 16H15.5L17.5 10Z" fill="#235e87"/>
    <!-- Arrow indicating flip -->
    <path d="M42 18C42 18 45 15 48 18C51 21 48 24 48 24" stroke="#ffffff" stroke-width="2" stroke-linecap="round"/>
    <path d="M46 16L48.5 18.5L46 21" stroke="#ffffff" stroke-width="2" stroke-linecap="round" stroke-linejoin="round"/>
  </g>
</svg>
